<?xml version="1.0" encoding="UTF-8" standalone="no"?>
<!DOCTYPE svg PUBLIC "-//W3C//DTD SVG 1.1//EN" "http://www.w3.org/Graphics/SVG/1.1/DTD/svg11.dtd"><svg width="100%" height="100%" viewBox="0 0 1000 1000" version="1.1" xmlns="http://www.w3.org/2000/svg" xmlns:xlink="http://www.w3.org/1999/xlink" xml:space="preserve" style="fill-rule:evenodd;clip-rule:evenodd;stroke-linejoin:round;stroke-miterlimit:1.41421;"><path d="M500,0.001c275.958,0 500,224.043 500,500c0,275.958 -224.042,499.999 -500,499.999c-275.957,0 -500,-224.041 -500,-499.999c0,-275.957 224.043,-500 500,-500Zm0,75c234.564,0 425,190.436 425,425c0,234.564 -190.436,425 -425,425c-234.564,0 -425,-190.436 -425,-425c0,-234.564 190.436,-425 425,-425Zm98.346,486.831c1.185,26.637 10.468,45.301 28.198,56.006c10.733,6.677 23.654,10.022 38.834,10.022c15.987,0 29.02,-4.084 39.042,-12.169c5.506,-4.404 10.356,-10.468 14.51,-18.287l71.868,0c-1.895,15.737 -10.635,31.738 -26.079,48.019c-24.114,25.8 -57.888,38.707 -101.279,38.707c-35.864,0 -67.491,-10.872 -94.811,-32.672c-27.487,-21.758 -41.133,-57.232 -41.133,-106.31c0,-46.04 12.377,-81.347 37.063,-105.907c24.769,-24.504 56.814,-36.84 96.275,-36.84c23.444,0 44.534,4.168 63.309,12.475c18.817,8.266 34.303,21.396 46.486,39.307c11.137,15.765 18.274,34.081 21.535,54.919c1.91,12.168 2.662,29.787 2.356,52.73l-196.174,0Zm-216.998,-245.948c44.423,0.641 75.841,13.409 94.365,38.261c11.124,15.305 16.699,33.551 16.699,54.835c0,21.912 -5.575,39.586 -16.852,52.898c-6.3,7.457 -15.542,14.301 -27.766,20.448c18.567,6.704 32.561,17.27 42.081,31.724c9.423,14.385 14.176,31.962 14.176,52.619c0,21.284 -5.408,40.394 -16.239,57.274c-6.885,11.151 -15.458,20.588 -25.772,28.24c-11.625,8.781 -25.299,14.761 -41.134,18.051c-15.82,3.247 -32.937,4.822 -51.433,4.822l-164.059,0.014l0,-359.2l175.934,0l0,0.014Zm-13.687,201.065l-89.668,0l0,95.801l88.413,0c15.779,0 28.114,-2.118 36.882,-6.314c15.96,-7.875 23.919,-22.762 23.933,-44.827c0,-18.734 -7.681,-31.557 -23.166,-38.554c-8.656,-3.903 -20.81,-5.938 -36.394,-6.106Zm353.764,-0.961c-1.282,-18.441 -7.582,-32.394 -18.733,-41.984c-11.291,-9.548 -25.188,-14.287 -41.817,-14.287c-18.008,0 -32.073,5.06 -42.025,15.165c-9.938,10.12 -16.197,23.822 -18.775,41.106l121.35,0Zm-364.177,-137.687l-79.283,0l0,79.228l88.553,0c15.764,0 28.616,-2.969 38.526,-8.907c9.841,-5.938 14.789,-16.476 14.789,-31.502c0,-16.796 -6.495,-27.821 -19.528,-33.243c-11.304,-3.694 -25.633,-5.576 -43.057,-5.576Zm380.653,-0.934l-156.016,0l0,-44.701l156.016,0l0,44.701Z" style="fill:#fff;"/></svg>
