<?xml version="1.0" encoding="UTF-8" standalone="no"?>
<!DOCTYPE svg PUBLIC "-//W3C//DTD SVG 1.1//EN" "http://www.w3.org/Graphics/SVG/1.1/DTD/svg11.dtd"><svg width="100%" height="100%" viewBox="0 0 1000 1000" version="1.1" xmlns="http://www.w3.org/2000/svg" xmlns:xlink="http://www.w3.org/1999/xlink" xml:space="preserve" style="fill-rule:evenodd;clip-rule:evenodd;stroke-linejoin:round;stroke-miterlimit:1.41421;"><path d="M500,0.001c275.958,0 500,224.043 500,500c0,275.958 -224.042,500 -500,500c-275.957,0 -500,-224.042 -500,-500c0,-275.957 224.043,-500 500,-500l0,0Zm0,75c234.564,0 425,190.436 425,425c0,234.564 -190.436,425 -425,425c-234.564,0 -425,-190.436 -425,-425c0,-234.564 190.436,-425 425,-425l0,0Zm6.863,658.469l-0.007,0c-6.607,0 -13.206,-0.362 -19.773,-1.142c-1.34,1.752 -2.763,3.484 -4.237,5.144c-15.88,17.914 -37.832,28.604 -61.79,30.071c-1.595,0.112 -3.625,0.178 -5.618,0.178c-46.907,0 -86.25,-36.652 -89.564,-83.415c-0.033,-0.61 -0.058,-1.239 -0.105,-1.859c-0.765,-15.014 -1.771,-44.245 0.052,-77.19c1.228,-21.49 1.772,-57.639 1.789,-58.935c0.003,-0.097 0.003,-0.169 0.003,-0.265c0.32,-22.161 8.858,-42.459 22.678,-57.999c-6.843,-23.801 -9.064,-52.18 -4.798,-85.601l0.649,-5.238c2.425,-19.795 6.037,-49.13 20.983,-77.357c22.596,-42.622 64.009,-67.085 113.609,-67.085c2.853,0 5.814,0.079 8.831,0.255c4.443,0.245 9.303,0.773 14.488,1.687c15.855,-13.948 36.68,-22.438 59.42,-22.438c0.291,0 0.619,0 0.914,0c49.193,0.609 89.043,40.959 88.795,89.982c0,0.33 -0.003,0.672 -0.008,0.999c-0.015,1.088 -4.502,126.382 -5.856,135.29c-0.1,0.62 -0.202,1.229 -0.306,1.839c-1.185,6.663 -3.116,13.037 -5.648,19.066c21.714,25.457 33.447,57.089 33.837,92.822c0.47,44.944 -20.148,88.59 -56.599,119.724c-31.28,26.76 -70.98,41.467 -111.739,41.467l0,0Zm-24.121,-252.05c-22.616,-3.524 -34.588,-18.541 -28.642,-65.227l0.718,-5.638c5.02,-40.605 9.328,-49.486 28.744,-48.487c5.807,0.364 12.403,3.95 19.04,9.354c5.983,7.033 19.682,16.164 27.223,34.316c5.528,13.223 7.412,21.844 8.11,31.137c0.065,0.297 1.314,11.393 1.314,11.393l0.013,-0.007c1.491,7.766 7.608,14.172 15.872,15.659c10.675,1.905 20.944,-5.182 22.875,-15.86c0.164,-1.219 5.034,-124.085 5.064,-126.122c0.062,-10.816 -8.69,-19.621 -19.543,-19.742c-10.94,-0.02 -19.803,8.725 -19.85,19.599c0,0.228 -0.095,17.091 -0.4,34.221c-15.445,-16.84 -35.38,-31.924 -57.547,-33.171c-59.66,-3.266 -66.136,51.38 -70.009,82.915l-0.693,5.534c-7.932,62.119 12.831,101.386 61.668,108.994c53.131,8.348 88.61,20.53 88.946,53.131c0.136,12.593 -6.493,25.588 -18.228,35.622c-13.982,11.959 -32.893,17.301 -50.5,14.345c-5.474,-0.88 -10.684,-2.26 -15.564,-3.997c-7.057,-3.829 -24.547,-14.427 -33.437,-26.721c-7.514,-10.368 -10.068,-26.673 -10.901,-36.977c0.102,-4.594 0.154,-7.667 0.174,-8.083c0.122,-10.802 -8.552,-19.693 -19.44,-19.901c-10.876,-0.198 -19.888,8.47 -20.03,19.373c0,0.372 -0.591,38.821 -1.883,62.013c-2.062,37.311 -0.055,68.968 0,70.314c0.755,10.846 10.083,19.083 20.951,18.362c10.913,-0.676 19.095,-10.043 18.429,-20.845c0,-0.29 -0.998,-15.498 -0.857,-36.774c14.399,9.243 33.283,18.208 56.068,22.044c29.387,4.9 59.494,-3.558 82.592,-23.298c20.621,-17.594 32.332,-41.633 32.081,-65.886c-0.796,-72.609 -82.834,-85.388 -122.358,-91.59l0,0Z" style="fill:#fff;"/></svg>