<?xml version="1.0" encoding="UTF-8" standalone="no"?>
<!DOCTYPE svg PUBLIC "-//W3C//DTD SVG 1.1//EN" "http://www.w3.org/Graphics/SVG/1.1/DTD/svg11.dtd">
<svg width="100%" height="100%" viewBox="0 0 800 800" version="1.1" xmlns="http://www.w3.org/2000/svg" xmlns:xlink="http://www.w3.org/1999/xlink" xml:space="preserve" style="fill-rule:evenodd;clip-rule:evenodd;stroke-linejoin:round;stroke-miterlimit:1.41421;">
    <g>
        <path d="M567.105,577.115C567.105,584.321 564.526,590.503 559.368,595.661C554.286,600.743 548.142,603.284 540.936,603.284C533.654,603.284 527.473,600.743 522.391,595.661C517.309,590.579 514.768,584.397 514.768,577.115C514.768,569.909 517.309,563.765 522.391,558.683C527.548,553.525 533.73,550.947 540.936,550.947C548.066,550.947 554.21,553.525 559.368,558.683C564.526,563.841 567.105,569.985 567.105,577.115ZM520.229,577.115C520.229,582.728 522.277,587.582 526.373,591.678C530.469,595.774 535.323,597.822 540.936,597.822C546.625,597.822 551.479,595.812 555.499,591.792C559.595,587.696 561.643,582.804 561.643,577.115C561.643,571.35 559.633,566.458 555.613,562.438C551.593,558.418 546.701,556.408 540.936,556.408C535.247,556.408 530.355,558.456 526.259,562.552C522.239,566.572 520.229,571.426 520.229,577.115ZM537.409,589.972L532.175,589.972L532.175,564.258L543.098,564.258C545.373,564.258 547.327,565.055 548.957,566.648C550.588,568.241 551.404,570.175 551.404,572.45C551.404,574.195 550.873,575.769 549.811,577.172C548.749,578.575 547.383,579.504 545.715,579.959L545.487,580.187L552.314,589.744L552.314,589.972L546.397,589.972L540.14,580.415L537.409,580.415L537.409,589.972ZM541.96,569.264L537.409,569.264L537.409,575.636L542.643,575.636C543.629,575.636 544.463,575.333 545.146,574.726C545.828,574.119 546.17,573.36 546.17,572.45C546.17,570.327 544.767,569.265 541.96,569.264Z" style="fill:white;"/>
        <path d="M423.518,603.284L351.274,603.284C324.64,603.284 301.193,585.729 293.693,560.173C264.445,460.521 197.203,219.239 197.203,219.239L311.346,219.239L379.647,476.652L509.966,219.239L628.872,219.239L423.518,603.284Z" style="fill:white;"/>
    </g>
</svg>
